{
	"asset":{
		"generator":"Khronos glTF Blender I/O v3.6.27",
		"version":"2.0"
	},
	"extensionsUsed":[
		"KHR_materials_specular",
		"KHR_materials_ior"
	],
	"scene":0,
	"scenes":[
		{
			"name":"Scene",
			"nodes":[
				0,
				1,
				2,
				3,
				4,
				5
			]
		}
	],
	"nodes":[
		{
			"mesh":0,
			"name":"Cone",
			"rotation":[
				0.012044321745634079,
				-0.0010883549693971872,
				0.006585021503269672,
				0.9999052286148071
			],
			"translation":[
				0,
				2.5975959300994873,
				0
			]
		},
		{
			"mesh":1,
			"name":"Cone.001",
			"rotation":[
				-0.012553532607853413,
				0.0011343692895025015,
				-0.006863423623144627,
				0.9998970031738281
			],
			"translation":[
				0,
				3.3764455318450928,
				0
			]
		},
		{
			"mesh":2,
			"name":"Cone.002",
			"rotation":[
				0.009404662065207958,
				-0.0030643437057733536,
				-0.008872789330780506,
				0.9999117255210876
			],
			"scale":[
				0.8130285143852234,
				0.8130286335945129,
				0.8130285739898682
			],
			"translation":[
				0,
				4.189926624298096,
				0
			]
		},
		{
			"mesh":3,
			"name":"Cone.003",
			"rotation":[
				-0.015723982825875282,
				0.005123389419168234,
				0.01483471691608429,
				0.9997532963752747
			],
			"scale":[
				0.6340691447257996,
				0.8130285143852234,
				0.6340691447257996
			],
			"translation":[
				0,
				4.8837666511535645,
				0
			]
		},
		{
			"mesh":4,
			"name":"Cone.004",
			"scale":[
				0.4441908895969391,
				0.6607934236526489,
				0.4441908895969391
			],
			"translation":[
				0,
				5.51713752746582,
				0
			]
		},
		{
			"mesh":5,
			"name":"Cylinder",
			"scale":[
				0.355415940284729,
				1.0213171243667603,
				0.355415940284729
			],
			"translation":[
				0,
				0.9913970232009888,
				0
			]
		}
	],
	"materials":[
		{
			"doubleSided":true,
			"extensions":{
				"KHR_materials_specular":{
					"specularColorTexture":{
						"index":0
					}
				},
				"KHR_materials_ior":{
					"ior":1.4500000476837158
				}
			},
			"name":"Woodland Matte Material",
			"pbrMetallicRoughness":{
				"baseColorTexture":{
					"index":1
				},
				"metallicFactor":0
			}
		}
	],
	"meshes":[
		{
			"name":"Cone",
			"primitives":[
				{
					"attributes":{
						"POSITION":0,
						"NORMAL":1,
						"TEXCOORD_0":2
					},
					"indices":3,
					"material":0
				}
			]
		},
		{
			"name":"Cone.001",
			"primitives":[
				{
					"attributes":{
						"POSITION":4,
						"NORMAL":5,
						"TEXCOORD_0":6
					},
					"indices":7,
					"material":0
				}
			]
		},
		{
			"name":"Cone.002",
			"primitives":[
				{
					"attributes":{
						"POSITION":8,
						"NORMAL":9,
						"TEXCOORD_0":10
					},
					"indices":11,
					"material":0
				}
			]
		},
		{
			"name":"Cone.003",
			"primitives":[
				{
					"attributes":{
						"POSITION":12,
						"NORMAL":13,
						"TEXCOORD_0":14
					},
					"indices":15,
					"material":0
				}
			]
		},
		{
			"name":"Cone.004",
			"primitives":[
				{
					"attributes":{
						"POSITION":16,
						"NORMAL":17,
						"TEXCOORD_0":18
					},
					"indices":19,
					"material":0
				}
			]
		},
		{
			"name":"Cylinder.001",
			"primitives":[
				{
					"attributes":{
						"POSITION":20,
						"NORMAL":21,
						"TEXCOORD_0":22
					},
					"indices":23,
					"material":0
				}
			]
		}
	],
	"textures":[
		{
			"sampler":0,
			"source":0
		},
		{
			"sampler":0,
			"source":1
		}
	],
	"images":[
		{
			"mimeType":"image/png",
			"name":"Image",
			"uri":"Image.png"
		},
		{
			"mimeType":"image/png",
			"name":"milestone_palette_1",
			"uri":"milestone_palette_1.png"
		}
	],
	"accessors":[
		{
			"bufferView":0,
			"componentType":5126,
			"count":122,
			"max":[
				1.000565767288208,
				1,
				0.9990108609199524
			],
			"min":[
				-1,
				-1,
				-0.9607867002487183
			],
			"type":"VEC3"
		},
		{
			"bufferView":1,
			"componentType":5126,
			"count":122,
			"type":"VEC3"
		},
		{
			"bufferView":2,
			"componentType":5126,
			"count":122,
			"type":"VEC2"
		},
		{
			"bufferView":3,
			"componentType":5123,
			"count":186,
			"type":"SCALAR"
		},
		{
			"bufferView":4,
			"componentType":5126,
			"count":144,
			"max":[
				0.9038882851600647,
				1,
				1
			],
			"min":[
				-0.9991588592529297,
				-1,
				-1
			],
			"type":"VEC3"
		},
		{
			"bufferView":5,
			"componentType":5126,
			"count":144,
			"type":"VEC3"
		},
		{
			"bufferView":6,
			"componentType":5126,
			"count":144,
			"type":"VEC2"
		},
		{
			"bufferView":7,
			"componentType":5123,
			"count":240,
			"type":"SCALAR"
		},
		{
			"bufferView":8,
			"componentType":5126,
			"count":154,
			"max":[
				0.9138849973678589,
				1,
				0.9600699543952942
			],
			"min":[
				-0.9247409105300903,
				-1.0396822690963745,
				-1
			],
			"type":"VEC3"
		},
		{
			"bufferView":9,
			"componentType":5126,
			"count":154,
			"type":"VEC3"
		},
		{
			"bufferView":10,
			"componentType":5126,
			"count":154,
			"type":"VEC2"
		},
		{
			"bufferView":11,
			"componentType":5123,
			"count":246,
			"type":"SCALAR"
		},
		{
			"bufferView":12,
			"componentType":5126,
			"count":146,
			"max":[
				1,
				1,
				0.783142626285553
			],
			"min":[
				-0.9524849057197571,
				-1,
				-0.9623792171478271
			],
			"type":"VEC3"
		},
		{
			"bufferView":13,
			"componentType":5126,
			"count":146,
			"type":"VEC3"
		},
		{
			"bufferView":14,
			"componentType":5126,
			"count":146,
			"type":"VEC2"
		},
		{
			"bufferView":15,
			"componentType":5123,
			"count":234,
			"type":"SCALAR"
		},
		{
			"bufferView":16,
			"componentType":5126,
			"count":192,
			"max":[
				0.8497432470321655,
				1.3211610317230225,
				1
			],
			"min":[
				-1,
				-1,
				-0.9376308917999268
			],
			"type":"VEC3"
		},
		{
			"bufferView":17,
			"componentType":5126,
			"count":192,
			"type":"VEC3"
		},
		{
			"bufferView":18,
			"componentType":5126,
			"count":192,
			"type":"VEC2"
		},
		{
			"bufferView":19,
			"componentType":5123,
			"count":282,
			"type":"SCALAR"
		},
		{
			"bufferView":20,
			"componentType":5126,
			"count":48,
			"max":[
				1,
				1,
				1
			],
			"min":[
				-1,
				-1,
				-1
			],
			"type":"VEC3"
		},
		{
			"bufferView":21,
			"componentType":5126,
			"count":48,
			"type":"VEC3"
		},
		{
			"bufferView":22,
			"componentType":5126,
			"count":48,
			"type":"VEC2"
		},
		{
			"bufferView":23,
			"componentType":5123,
			"count":84,
			"type":"SCALAR"
		}
	],
	"bufferViews":[
		{
			"buffer":0,
			"byteLength":1464,
			"byteOffset":0,
			"target":34962
		},
		{
			"buffer":0,
			"byteLength":1464,
			"byteOffset":1464,
			"target":34962
		},
		{
			"buffer":0,
			"byteLength":976,
			"byteOffset":2928,
			"target":34962
		},
		{
			"buffer":0,
			"byteLength":372,
			"byteOffset":3904,
			"target":34963
		},
		{
			"buffer":0,
			"byteLength":1728,
			"byteOffset":4276,
			"target":34962
		},
		{
			"buffer":0,
			"byteLength":1728,
			"byteOffset":6004,
			"target":34962
		},
		{
			"buffer":0,
			"byteLength":1152,
			"byteOffset":7732,
			"target":34962
		},
		{
			"buffer":0,
			"byteLength":480,
			"byteOffset":8884,
			"target":34963
		},
		{
			"buffer":0,
			"byteLength":1848,
			"byteOffset":9364,
			"target":34962
		},
		{
			"buffer":0,
			"byteLength":1848,
			"byteOffset":11212,
			"target":34962
		},
		{
			"buffer":0,
			"byteLength":1232,
			"byteOffset":13060,
			"target":34962
		},
		{
			"buffer":0,
			"byteLength":492,
			"byteOffset":14292,
			"target":34963
		},
		{
			"buffer":0,
			"byteLength":1752,
			"byteOffset":14784,
			"target":34962
		},
		{
			"buffer":0,
			"byteLength":1752,
			"byteOffset":16536,
			"target":34962
		},
		{
			"buffer":0,
			"byteLength":1168,
			"byteOffset":18288,
			"target":34962
		},
		{
			"buffer":0,
			"byteLength":468,
			"byteOffset":19456,
			"target":34963
		},
		{
			"buffer":0,
			"byteLength":2304,
			"byteOffset":19924,
			"target":34962
		},
		{
			"buffer":0,
			"byteLength":2304,
			"byteOffset":22228,
			"target":34962
		},
		{
			"buffer":0,
			"byteLength":1536,
			"byteOffset":24532,
			"target":34962
		},
		{
			"buffer":0,
			"byteLength":564,
			"byteOffset":26068,
			"target":34963
		},
		{
			"buffer":0,
			"byteLength":576,
			"byteOffset":26632,
			"target":34962
		},
		{
			"buffer":0,
			"byteLength":576,
			"byteOffset":27208,
			"target":34962
		},
		{
			"buffer":0,
			"byteLength":384,
			"byteOffset":27784,
			"target":34962
		},
		{
			"buffer":0,
			"byteLength":168,
			"byteOffset":28168,
			"target":34963
		}
	],
	"samplers":[
		{
			"magFilter":9729,
			"minFilter":9987
		}
	],
	"buffers":[
		{
			"byteLength":28336,
			"uri":"woodland_spruce_1.bin"
		}
	]
}
